<?xml version="1.0" standalone="no"?>
<svg xmlns:xlink="http://www.w3.org/1999/xlink" id="wave" style="transform:rotate(180deg); transition: 0.3s" viewBox="0 0 1440 490" version="1.1" xmlns="http://www.w3.org/2000/svg"><defs><linearGradient id="sw-gradient-0" x1="0" x2="0" y1="1" y2="0"><stop stop-color="rgba(239, 122, 122, 1)" offset="0%"/><stop stop-color="rgba(236, 100, 100, 1)" offset="100%"/></linearGradient></defs><path style="transform:translate(0, 0px); opacity:1" fill="url(#sw-gradient-0)" d="M0,245L40,269.5C80,294,160,343,240,359.3C320,376,400,359,480,294C560,229,640,114,720,114.3C800,114,880,229,960,261.3C1040,294,1120,245,1200,228.7C1280,212,1360,229,1440,261.3C1520,294,1600,343,1680,334.8C1760,327,1840,261,1920,236.8C2000,212,2080,229,2160,236.8C2240,245,2320,245,2400,220.5C2480,196,2560,147,2640,106.2C2720,65,2800,33,2880,73.5C2960,114,3040,229,3120,302.2C3200,376,3280,408,3360,383.8C3440,359,3520,278,3600,228.7C3680,180,3760,163,3840,204.2C3920,245,4000,343,4080,375.7C4160,408,4240,376,4320,326.7C4400,278,4480,212,4560,228.7C4640,245,4720,343,4800,392C4880,441,4960,441,5040,392C5120,343,5200,245,5280,245C5360,245,5440,343,5520,326.7C5600,310,5680,180,5720,114.3L5760,49L5760,490L5720,490C5680,490,5600,490,5520,490C5440,490,5360,490,5280,490C5200,490,5120,490,5040,490C4960,490,4880,490,4800,490C4720,490,4640,490,4560,490C4480,490,4400,490,4320,490C4240,490,4160,490,4080,490C4000,490,3920,490,3840,490C3760,490,3680,490,3600,490C3520,490,3440,490,3360,490C3280,490,3200,490,3120,490C3040,490,2960,490,2880,490C2800,490,2720,490,2640,490C2560,490,2480,490,2400,490C2320,490,2240,490,2160,490C2080,490,2000,490,1920,490C1840,490,1760,490,1680,490C1600,490,1520,490,1440,490C1360,490,1280,490,1200,490C1120,490,1040,490,960,490C880,490,800,490,720,490C640,490,560,490,480,490C400,490,320,490,240,490C160,490,80,490,40,490L0,490Z"/><defs><linearGradient id="sw-gradient-1" x1="0" x2="0" y1="1" y2="0"><stop stop-color="rgba(234, 77, 77, 1)" offset="0%"/><stop stop-color="rgba(231, 54, 54, 1)" offset="100%"/></linearGradient></defs><path style="transform:translate(0, 50px); opacity:0.9" fill="url(#sw-gradient-1)" d="M0,392L40,392C80,392,160,392,240,326.7C320,261,400,131,480,114.3C560,98,640,196,720,261.3C800,327,880,359,960,383.8C1040,408,1120,425,1200,359.3C1280,294,1360,147,1440,81.7C1520,16,1600,33,1680,89.8C1760,147,1840,245,1920,310.3C2000,376,2080,408,2160,424.7C2240,441,2320,441,2400,392C2480,343,2560,245,2640,196C2720,147,2800,147,2880,138.8C2960,131,3040,114,3120,138.8C3200,163,3280,229,3360,253.2C3440,278,3520,261,3600,253.2C3680,245,3760,245,3840,228.7C3920,212,4000,180,4080,155.2C4160,131,4240,114,4320,138.8C4400,163,4480,229,4560,277.7C4640,327,4720,359,4800,318.5C4880,278,4960,163,5040,122.5C5120,82,5200,114,5280,155.2C5360,196,5440,245,5520,294C5600,343,5680,392,5720,416.5L5760,441L5760,490L5720,490C5680,490,5600,490,5520,490C5440,490,5360,490,5280,490C5200,490,5120,490,5040,490C4960,490,4880,490,4800,490C4720,490,4640,490,4560,490C4480,490,4400,490,4320,490C4240,490,4160,490,4080,490C4000,490,3920,490,3840,490C3760,490,3680,490,3600,490C3520,490,3440,490,3360,490C3280,490,3200,490,3120,490C3040,490,2960,490,2880,490C2800,490,2720,490,2640,490C2560,490,2480,490,2400,490C2320,490,2240,490,2160,490C2080,490,2000,490,1920,490C1840,490,1760,490,1680,490C1600,490,1520,490,1440,490C1360,490,1280,490,1200,490C1120,490,1040,490,960,490C880,490,800,490,720,490C640,490,560,490,480,490C400,490,320,490,240,490C160,490,80,490,40,490L0,490Z"/></svg>